<?xml version="1.0" encoding="UTF-8" standalone="no"?>
<!-- Created using Karbon, part of Calligra: http://www.calligra.org/karbon -->

<svg
   xmlns:dc="http://purl.org/dc/elements/1.1/"
   xmlns:cc="http://creativecommons.org/ns#"
   xmlns:rdf="http://www.w3.org/1999/02/22-rdf-syntax-ns#"
   xmlns:svg="http://www.w3.org/2000/svg"
   xmlns="http://www.w3.org/2000/svg"
   xmlns:xlink="http://www.w3.org/1999/xlink"
   xmlns:sodipodi="http://sodipodi.sourceforge.net/DTD/sodipodi-0.dtd"
   xmlns:inkscape="http://www.inkscape.org/namespaces/inkscape"
   width="32"
   height="32"
   id="svg3146"
   version="1.1"
   inkscape:version="0.48.3.1 r9886"
   sodipodi:docname="journal.svg">
  <metadata
     id="metadata3267">
    <rdf:RDF>
      <cc:Work
         rdf:about="">
        <dc:format>image/svg+xml</dc:format>
        <dc:type
           rdf:resource="http://purl.org/dc/dcmitype/StillImage" />
      </cc:Work>
    </rdf:RDF>
  </metadata>
  <sodipodi:namedview
     pagecolor="#ffffff"
     bordercolor="#666666"
     borderopacity="1"
     objecttolerance="10"
     gridtolerance="10"
     guidetolerance="10"
     inkscape:pageopacity="0"
     inkscape:pageshadow="2"
     inkscape:window-width="1366"
     inkscape:window-height="716"
     id="namedview3265"
     showgrid="false"
     showguides="false"
     inkscape:guide-bbox="true"
     inkscape:snap-object-midpoints="true"
     inkscape:snap-midpoints="true"
     inkscape:snap-to-guides="true"
     inkscape:zoom="16.9375"
     inkscape:cx="16"
     inkscape:cy="16"
     inkscape:window-x="-2"
     inkscape:window-y="-3"
     inkscape:window-maximized="1"
     inkscape:current-layer="layer3">
    <sodipodi:guide
       orientation="0,1"
       position="9.5684779,13"
       id="guide3695" />
    <sodipodi:guide
       orientation="0,1"
       position="9.5684779,12"
       id="guide3697" />
    <sodipodi:guide
       orientation="0,1"
       position="9.0569223,11"
       id="guide3699" />
    <sodipodi:guide
       orientation="0,1"
       position="9.0569223,9.9999999"
       id="guide3701" />
    <sodipodi:guide
       orientation="0,1"
       position="6.3286977,8.9999999"
       id="guide3703" />
    <sodipodi:guide
       orientation="0,1"
       position="6.3286977,7.9999999"
       id="guide3705" />
    <sodipodi:guide
       orientation="0,1"
       position="4.8855873,6.9999999"
       id="guide3709" />
    <sodipodi:guide
       orientation="0,1"
       position="4.8855873,5.9999999"
       id="guide3711" />
    <sodipodi:guide
       orientation="0,1"
       position="4.8855873,4.9999999"
       id="guide3713" />
    <sodipodi:guide
       orientation="0,1"
       position="4.8855873,3.9999999"
       id="guide3715" />
    <sodipodi:guide
       orientation="1,0"
       position="3.0390625,8.515625"
       id="guide3717" />
    <inkscape:grid
       type="xygrid"
       id="grid3958"
       empspacing="5"
       visible="true"
       enabled="true"
       snapvisiblegridlinesonly="true" />
  </sodipodi:namedview>
  <defs
     id="defs3148">
    <linearGradient
       id="gradient0"
       gradientTransform="scale(0.93538762,1.0690755)"
       gradientUnits="userSpaceOnUse"
       x1="6.3733492"
       y1="3.5243118"
       x2="6.3733492"
       y2="16.49502"
       spreadMethod="pad">
      <stop
         stop-color="#ffffff"
         offset="0.00000000000"
         stop-opacity="1.00000000000"
         id="stop3151" />
      <stop
         stop-color="#e6e6e6"
         offset="1.00000000000"
         stop-opacity="1.00000000000"
         id="stop3153" />
    </linearGradient>
    <linearGradient
       id="gradient1"
       gradientTransform="scale(0.93538762,1.0690755)"
       gradientUnits="userSpaceOnUse"
       x1="1.7680911"
       y1="17.492765"
       x2="1.7680911"
       y2="1.5288181"
       spreadMethod="pad">
      <stop
         stop-color="#969696"
         offset="0.00000000000"
         stop-opacity="1.00000000000"
         id="stop3156" />
      <stop
         stop-color="#bebebe"
         offset="1.00000000000"
         stop-opacity="1.00000000000"
         id="stop3158" />
    </linearGradient>
    <linearGradient
       id="gradient2"
       gradientTransform="scale(0.99936904,1.0006314)"
       gradientUnits="userSpaceOnUse"
       x1="24.369419"
       y1="26.198687"
       x2="24.369419"
       y2="32.317211"
       spreadMethod="pad">
      <stop
         stop-color="#181818"
         offset="0.00000000000"
         stop-opacity="1.00000000000"
         id="stop3161" />
      <stop
         stop-color="#dbdbdb"
         offset="0.13482947648"
         stop-opacity="1.00000000000"
         id="stop3163" />
      <stop
         stop-color="#a4a4a4"
         offset="0.20224422216"
         stop-opacity="1.00000000000"
         id="stop3165" />
      <stop
         stop-color="#ffffff"
         offset="0.26965895295"
         stop-opacity="1.00000000000"
         id="stop3167" />
      <stop
         stop-color="#8d8d8d"
         offset="0.44650277495"
         stop-opacity="1.00000000000"
         id="stop3169" />
      <stop
         stop-color="#959595"
         offset="0.57114136219"
         stop-opacity="1.00000000000"
         id="stop3171" />
      <stop
         stop-color="#cecece"
         offset="0.72038066387"
         stop-opacity="1.00000000000"
         id="stop3173" />
      <stop
         stop-color="#181818"
         offset="1.00000000000"
         stop-opacity="1.00000000000"
         id="stop3175" />
    </linearGradient>
    <linearGradient
       id="gradient3"
       gradientTransform="scale(1.0007737,0.99922694)"
       gradientUnits="userSpaceOnUse"
       x1="30.0145"
       y1="25.00894"
       x2="30.0145"
       y2="30.023365"
       spreadMethod="pad">
      <stop
         stop-color="#565656"
         offset="0.00000000000"
         stop-opacity="1.00000000000"
         id="stop3178" />
      <stop
         stop-color="#9a9a9a"
         offset="0.50000000000"
         stop-opacity="1.00000000000"
         id="stop3180" />
      <stop
         stop-color="#545454"
         offset="1.00000000000"
         stop-opacity="1.00000000000"
         id="stop3182" />
    </linearGradient>
    <linearGradient
       id="gradient4"
       gradientTransform="scale(1.0007737,0.99922693)"
       gradientUnits="userSpaceOnUse"
       x1="30.014494"
       y1="25.008932"
       x2="30.014494"
       y2="30.023359"
       spreadMethod="pad">
      <stop
         stop-color="#b1b1b1"
         offset="0.00000000000"
         stop-opacity="1.00000000000"
         id="stop3185" />
      <stop
         stop-color="#ffffff"
         offset="0.50000000000"
         stop-opacity="1.00000000000"
         id="stop3187" />
      <stop
         stop-color="#8f8f8f"
         offset="1.00000000000"
         stop-opacity="1.00000000000"
         id="stop3189" />
    </linearGradient>
    <linearGradient
       id="gradient5"
       gradientTransform="scale(1.0007737,0.99922694)"
       gradientUnits="userSpaceOnUse"
       x1="30.014479"
       y1="25.008947"
       x2="30.014479"
       y2="30.023375"
       spreadMethod="pad">
      <stop
         stop-color="#565656"
         offset="0.00000000000"
         stop-opacity="1.00000000000"
         id="stop3192" />
      <stop
         stop-color="#9a9a9a"
         offset="0.50000000000"
         stop-opacity="1.00000000000"
         id="stop3194" />
      <stop
         stop-color="#545454"
         offset="1.00000000000"
         stop-opacity="1.00000000000"
         id="stop3196" />
    </linearGradient>
    <linearGradient
       id="gradient6"
       gradientTransform="scale(1.0007737,0.99922693)"
       gradientUnits="userSpaceOnUse"
       x1="30.014484"
       y1="25.00894"
       x2="30.014484"
       y2="30.023365"
       spreadMethod="pad">
      <stop
         stop-color="#b1b1b1"
         offset="0.00000000000"
         stop-opacity="1.00000000000"
         id="stop3199" />
      <stop
         stop-color="#ffffff"
         offset="0.50000000000"
         stop-opacity="1.00000000000"
         id="stop3201" />
      <stop
         stop-color="#8f8f8f"
         offset="1.00000000000"
         stop-opacity="1.00000000000"
         id="stop3203" />
    </linearGradient>
    <linearGradient
       id="gradient7"
       gradientTransform="scale(1.0007736,0.99922695)"
       gradientUnits="userSpaceOnUse"
       x1="30.014503"
       y1="25.008944"
       x2="30.014503"
       y2="30.023371"
       spreadMethod="pad">
      <stop
         stop-color="#565656"
         offset="0.00000000000"
         stop-opacity="1.00000000000"
         id="stop3206" />
      <stop
         stop-color="#9a9a9a"
         offset="0.50000000000"
         stop-opacity="1.00000000000"
         id="stop3208" />
      <stop
         stop-color="#545454"
         offset="1.00000000000"
         stop-opacity="1.00000000000"
         id="stop3210" />
    </linearGradient>
    <linearGradient
       id="gradient8"
       gradientTransform="scale(1.0007737,0.99922692)"
       gradientUnits="userSpaceOnUse"
       x1="30.014494"
       y1="25.008942"
       x2="30.014494"
       y2="30.023369"
       spreadMethod="pad">
      <stop
         stop-color="#b1b1b1"
         offset="0.00000000000"
         stop-opacity="1.00000000000"
         id="stop3213" />
      <stop
         stop-color="#ffffff"
         offset="0.50000000000"
         stop-opacity="1.00000000000"
         id="stop3215" />
      <stop
         stop-color="#8f8f8f"
         offset="1.00000000000"
         stop-opacity="1.00000000000"
         id="stop3217" />
    </linearGradient>
    <linearGradient
       id="gradient9"
       gradientTransform="matrix(0.37638,0.0361526,0.0367,0.374874,-2.47809,-12.1224)"
       gradientUnits="objectBoundingBox"
       x1="1.135566"
       y1="7.7779136"
       x2="1.959609"
       y2="8.6145487"
       spreadMethod="pad">
      <stop
         stop-color="#dbce48"
         offset="0.00000000000"
         stop-opacity="1.00000000000"
         id="stop3220" />
      <stop
         stop-color="#c5b625"
         offset="1.00000000000"
         stop-opacity="1.00000000000"
         id="stop3222" />
    </linearGradient>
    <linearGradient
       id="gradient0-7"
       gradientTransform="scale(0.93538762,1.0690755)"
       gradientUnits="userSpaceOnUse"
       x1="6.3733492"
       y1="3.5243118"
       x2="6.3733492"
       y2="16.49502"
       spreadMethod="pad">
      <stop
         stop-color="#ffffff"
         offset="0.00000000000"
         stop-opacity="1.00000000000"
         id="stop3151-5" />
      <stop
         stop-color="#e6e6e6"
         offset="1.00000000000"
         stop-opacity="1.00000000000"
         id="stop3153-6" />
    </linearGradient>
    <linearGradient
       id="gradient1-7"
       gradientTransform="scale(0.93538762,1.0690755)"
       gradientUnits="userSpaceOnUse"
       x1="1.7680911"
       y1="17.492765"
       x2="1.7680911"
       y2="1.5288181"
       spreadMethod="pad">
      <stop
         stop-color="#969696"
         offset="0.00000000000"
         stop-opacity="1.00000000000"
         id="stop3156-7" />
      <stop
         stop-color="#bebebe"
         offset="1.00000000000"
         stop-opacity="1.00000000000"
         id="stop3158-6" />
    </linearGradient>
    <linearGradient
       id="gradient2-7"
       gradientTransform="scale(0.99936904,1.0006314)"
       gradientUnits="userSpaceOnUse"
       x1="24.369419"
       y1="26.198687"
       x2="24.369419"
       y2="32.317211"
       spreadMethod="pad">
      <stop
         stop-color="#181818"
         offset="0.00000000000"
         stop-opacity="1.00000000000"
         id="stop3161-7" />
      <stop
         stop-color="#dbdbdb"
         offset="0.13482947648"
         stop-opacity="1.00000000000"
         id="stop3163-9" />
      <stop
         stop-color="#a4a4a4"
         offset="0.20224422216"
         stop-opacity="1.00000000000"
         id="stop3165-0" />
      <stop
         stop-color="#ffffff"
         offset="0.26965895295"
         stop-opacity="1.00000000000"
         id="stop3167-0" />
      <stop
         stop-color="#8d8d8d"
         offset="0.44650277495"
         stop-opacity="1.00000000000"
         id="stop3169-1" />
      <stop
         stop-color="#959595"
         offset="0.57114136219"
         stop-opacity="1.00000000000"
         id="stop3171-4" />
      <stop
         stop-color="#cecece"
         offset="0.72038066387"
         stop-opacity="1.00000000000"
         id="stop3173-1" />
      <stop
         stop-color="#181818"
         offset="1.00000000000"
         stop-opacity="1.00000000000"
         id="stop3175-6" />
    </linearGradient>
    <linearGradient
       id="gradient3-3"
       gradientTransform="scale(1.0007737,0.99922694)"
       gradientUnits="userSpaceOnUse"
       x1="30.0145"
       y1="25.00894"
       x2="30.0145"
       y2="30.023365"
       spreadMethod="pad">
      <stop
         stop-color="#565656"
         offset="0.00000000000"
         stop-opacity="1.00000000000"
         id="stop3178-0" />
      <stop
         stop-color="#9a9a9a"
         offset="0.50000000000"
         stop-opacity="1.00000000000"
         id="stop3180-8" />
      <stop
         stop-color="#545454"
         offset="1.00000000000"
         stop-opacity="1.00000000000"
         id="stop3182-5" />
    </linearGradient>
    <linearGradient
       id="gradient4-1"
       gradientTransform="scale(1.0007737,0.99922693)"
       gradientUnits="userSpaceOnUse"
       x1="30.014494"
       y1="25.008932"
       x2="30.014494"
       y2="30.023359"
       spreadMethod="pad">
      <stop
         stop-color="#b1b1b1"
         offset="0.00000000000"
         stop-opacity="1.00000000000"
         id="stop3185-2" />
      <stop
         stop-color="#ffffff"
         offset="0.50000000000"
         stop-opacity="1.00000000000"
         id="stop3187-5" />
      <stop
         stop-color="#8f8f8f"
         offset="1.00000000000"
         stop-opacity="1.00000000000"
         id="stop3189-2" />
    </linearGradient>
    <linearGradient
       id="gradient5-6"
       gradientTransform="scale(1.0007737,0.99922694)"
       gradientUnits="userSpaceOnUse"
       x1="30.014479"
       y1="25.008947"
       x2="30.014479"
       y2="30.023375"
       spreadMethod="pad">
      <stop
         stop-color="#565656"
         offset="0.00000000000"
         stop-opacity="1.00000000000"
         id="stop3192-9" />
      <stop
         stop-color="#9a9a9a"
         offset="0.50000000000"
         stop-opacity="1.00000000000"
         id="stop3194-2" />
      <stop
         stop-color="#545454"
         offset="1.00000000000"
         stop-opacity="1.00000000000"
         id="stop3196-7" />
    </linearGradient>
    <linearGradient
       id="gradient6-3"
       gradientTransform="scale(1.0007737,0.99922693)"
       gradientUnits="userSpaceOnUse"
       x1="30.014484"
       y1="25.00894"
       x2="30.014484"
       y2="30.023365"
       spreadMethod="pad">
      <stop
         stop-color="#b1b1b1"
         offset="0.00000000000"
         stop-opacity="1.00000000000"
         id="stop3199-6" />
      <stop
         stop-color="#ffffff"
         offset="0.50000000000"
         stop-opacity="1.00000000000"
         id="stop3201-4" />
      <stop
         stop-color="#8f8f8f"
         offset="1.00000000000"
         stop-opacity="1.00000000000"
         id="stop3203-1" />
    </linearGradient>
    <linearGradient
       id="gradient7-3"
       gradientTransform="scale(1.0007736,0.99922695)"
       gradientUnits="userSpaceOnUse"
       x1="30.014503"
       y1="25.008944"
       x2="30.014503"
       y2="30.023371"
       spreadMethod="pad">
      <stop
         stop-color="#565656"
         offset="0.00000000000"
         stop-opacity="1.00000000000"
         id="stop3206-4" />
      <stop
         stop-color="#9a9a9a"
         offset="0.50000000000"
         stop-opacity="1.00000000000"
         id="stop3208-8" />
      <stop
         stop-color="#545454"
         offset="1.00000000000"
         stop-opacity="1.00000000000"
         id="stop3210-9" />
    </linearGradient>
    <linearGradient
       id="gradient8-5"
       gradientTransform="scale(1.0007737,0.99922692)"
       gradientUnits="userSpaceOnUse"
       x1="30.014494"
       y1="25.008942"
       x2="30.014494"
       y2="30.023369"
       spreadMethod="pad">
      <stop
         stop-color="#b1b1b1"
         offset="0.00000000000"
         stop-opacity="1.00000000000"
         id="stop3213-2" />
      <stop
         stop-color="#ffffff"
         offset="0.50000000000"
         stop-opacity="1.00000000000"
         id="stop3215-8" />
      <stop
         stop-color="#8f8f8f"
         offset="1.00000000000"
         stop-opacity="1.00000000000"
         id="stop3217-5" />
    </linearGradient>
    <linearGradient
       id="gradient0-1"
       gradientTransform="scale(0.93538762,1.0690755)"
       gradientUnits="userSpaceOnUse"
       x1="6.3733492"
       y1="3.5243118"
       x2="6.3733492"
       y2="16.49502"
       spreadMethod="pad">
      <stop
         stop-color="#ffffff"
         offset="0.00000000000"
         stop-opacity="1.00000000000"
         id="stop3151-8" />
      <stop
         stop-color="#e6e6e6"
         offset="1.00000000000"
         stop-opacity="1.00000000000"
         id="stop3153-5" />
    </linearGradient>
    <linearGradient
       id="gradient1-4"
       gradientTransform="scale(0.93538762,1.0690755)"
       gradientUnits="userSpaceOnUse"
       x1="1.7680911"
       y1="17.492765"
       x2="1.7680911"
       y2="1.5288181"
       spreadMethod="pad">
      <stop
         stop-color="#969696"
         offset="0.00000000000"
         stop-opacity="1.00000000000"
         id="stop3156-3" />
      <stop
         stop-color="#bebebe"
         offset="1.00000000000"
         stop-opacity="1.00000000000"
         id="stop3158-9" />
    </linearGradient>
    <linearGradient
       id="gradient2-7-8"
       gradientTransform="scale(0.99936904,1.0006314)"
       gradientUnits="userSpaceOnUse"
       x1="24.369419"
       y1="26.198687"
       x2="24.369419"
       y2="32.317211"
       spreadMethod="pad">
      <stop
         stop-color="#181818"
         offset="0.00000000000"
         stop-opacity="1.00000000000"
         id="stop3161-7-1" />
      <stop
         stop-color="#dbdbdb"
         offset="0.13482947648"
         stop-opacity="1.00000000000"
         id="stop3163-9-1" />
      <stop
         stop-color="#a4a4a4"
         offset="0.20224422216"
         stop-opacity="1.00000000000"
         id="stop3165-0-4" />
      <stop
         stop-color="#ffffff"
         offset="0.26965895295"
         stop-opacity="1.00000000000"
         id="stop3167-0-2" />
      <stop
         stop-color="#8d8d8d"
         offset="0.44650277495"
         stop-opacity="1.00000000000"
         id="stop3169-1-4" />
      <stop
         stop-color="#959595"
         offset="0.57114136219"
         stop-opacity="1.00000000000"
         id="stop3171-4-1" />
      <stop
         stop-color="#cecece"
         offset="0.72038066387"
         stop-opacity="1.00000000000"
         id="stop3173-1-6" />
      <stop
         stop-color="#181818"
         offset="1.00000000000"
         stop-opacity="1.00000000000"
         id="stop3175-6-2" />
    </linearGradient>
    <linearGradient
       id="gradient3-3-1"
       gradientTransform="scale(1.0007737,0.99922694)"
       gradientUnits="userSpaceOnUse"
       x1="30.0145"
       y1="25.00894"
       x2="30.0145"
       y2="30.023365"
       spreadMethod="pad">
      <stop
         stop-color="#565656"
         offset="0.00000000000"
         stop-opacity="1.00000000000"
         id="stop3178-0-8" />
      <stop
         stop-color="#9a9a9a"
         offset="0.50000000000"
         stop-opacity="1.00000000000"
         id="stop3180-8-1" />
      <stop
         stop-color="#545454"
         offset="1.00000000000"
         stop-opacity="1.00000000000"
         id="stop3182-5-4" />
    </linearGradient>
    <linearGradient
       id="gradient4-1-5"
       gradientTransform="scale(1.0007737,0.99922693)"
       gradientUnits="userSpaceOnUse"
       x1="30.014494"
       y1="25.008932"
       x2="30.014494"
       y2="30.023359"
       spreadMethod="pad">
      <stop
         stop-color="#b1b1b1"
         offset="0.00000000000"
         stop-opacity="1.00000000000"
         id="stop3185-2-6" />
      <stop
         stop-color="#ffffff"
         offset="0.50000000000"
         stop-opacity="1.00000000000"
         id="stop3187-5-5" />
      <stop
         stop-color="#8f8f8f"
         offset="1.00000000000"
         stop-opacity="1.00000000000"
         id="stop3189-2-0" />
    </linearGradient>
    <linearGradient
       id="gradient5-6-2"
       gradientTransform="scale(1.0007737,0.99922694)"
       gradientUnits="userSpaceOnUse"
       x1="30.014479"
       y1="25.008947"
       x2="30.014479"
       y2="30.023375"
       spreadMethod="pad">
      <stop
         stop-color="#565656"
         offset="0.00000000000"
         stop-opacity="1.00000000000"
         id="stop3192-9-5" />
      <stop
         stop-color="#9a9a9a"
         offset="0.50000000000"
         stop-opacity="1.00000000000"
         id="stop3194-2-9" />
      <stop
         stop-color="#545454"
         offset="1.00000000000"
         stop-opacity="1.00000000000"
         id="stop3196-7-9" />
    </linearGradient>
    <linearGradient
       id="gradient6-3-9"
       gradientTransform="scale(1.0007737,0.99922693)"
       gradientUnits="userSpaceOnUse"
       x1="30.014484"
       y1="25.00894"
       x2="30.014484"
       y2="30.023365"
       spreadMethod="pad">
      <stop
         stop-color="#b1b1b1"
         offset="0.00000000000"
         stop-opacity="1.00000000000"
         id="stop3199-6-7" />
      <stop
         stop-color="#ffffff"
         offset="0.50000000000"
         stop-opacity="1.00000000000"
         id="stop3201-4-4" />
      <stop
         stop-color="#8f8f8f"
         offset="1.00000000000"
         stop-opacity="1.00000000000"
         id="stop3203-1-2" />
    </linearGradient>
    <linearGradient
       id="gradient7-3-8"
       gradientTransform="scale(1.0007736,0.99922695)"
       gradientUnits="userSpaceOnUse"
       x1="30.014503"
       y1="25.008944"
       x2="30.014503"
       y2="30.023371"
       spreadMethod="pad">
      <stop
         stop-color="#565656"
         offset="0.00000000000"
         stop-opacity="1.00000000000"
         id="stop3206-4-2" />
      <stop
         stop-color="#9a9a9a"
         offset="0.50000000000"
         stop-opacity="1.00000000000"
         id="stop3208-8-7" />
      <stop
         stop-color="#545454"
         offset="1.00000000000"
         stop-opacity="1.00000000000"
         id="stop3210-9-3" />
    </linearGradient>
    <linearGradient
       id="gradient8-5-1"
       gradientTransform="scale(1.0007737,0.99922692)"
       gradientUnits="userSpaceOnUse"
       x1="30.014494"
       y1="25.008942"
       x2="30.014494"
       y2="30.023369"
       spreadMethod="pad">
      <stop
         stop-color="#b1b1b1"
         offset="0.00000000000"
         stop-opacity="1.00000000000"
         id="stop3213-2-0" />
      <stop
         stop-color="#ffffff"
         offset="0.50000000000"
         stop-opacity="1.00000000000"
         id="stop3215-8-1" />
      <stop
         stop-color="#8f8f8f"
         offset="1.00000000000"
         stop-opacity="1.00000000000"
         id="stop3217-5-4" />
    </linearGradient>
    <linearGradient
       inkscape:collect="always"
       xlink:href="#gradient0-1"
       id="linearGradient4060"
       gradientUnits="userSpaceOnUse"
       gradientTransform="scale(0.93538762,1.0690755)"
       spreadMethod="pad"
       x1="6.3733492"
       y1="3.5243118"
       x2="6.3733492"
       y2="16.49502" />
    <linearGradient
       inkscape:collect="always"
       xlink:href="#gradient1-4"
       id="linearGradient4062"
       gradientUnits="userSpaceOnUse"
       gradientTransform="scale(0.93538762,1.0690755)"
       spreadMethod="pad"
       x1="1.7680911"
       y1="17.492765"
       x2="1.7680911"
       y2="1.5288181" />
    <linearGradient
       inkscape:collect="always"
       xlink:href="#gradient2-7"
       id="linearGradient4064"
       gradientUnits="userSpaceOnUse"
       gradientTransform="scale(0.99936904,1.0006314)"
       spreadMethod="pad"
       x1="24.369419"
       y1="26.198687"
       x2="24.369419"
       y2="32.317211" />
    <linearGradient
       inkscape:collect="always"
       xlink:href="#gradient3-3"
       id="linearGradient4066"
       gradientUnits="userSpaceOnUse"
       gradientTransform="scale(1.0007737,0.99922694)"
       spreadMethod="pad"
       x1="30.0145"
       y1="25.00894"
       x2="30.0145"
       y2="30.023365" />
    <linearGradient
       inkscape:collect="always"
       xlink:href="#gradient4-1"
       id="linearGradient4068"
       gradientUnits="userSpaceOnUse"
       gradientTransform="scale(1.0007737,0.99922693)"
       spreadMethod="pad"
       x1="30.014494"
       y1="25.008932"
       x2="30.014494"
       y2="30.023359" />
    <linearGradient
       inkscape:collect="always"
       xlink:href="#gradient5-6"
       id="linearGradient4070"
       gradientUnits="userSpaceOnUse"
       gradientTransform="scale(1.0007737,0.99922694)"
       spreadMethod="pad"
       x1="30.014479"
       y1="25.008947"
       x2="30.014479"
       y2="30.023375" />
    <linearGradient
       inkscape:collect="always"
       xlink:href="#gradient6-3"
       id="linearGradient4072"
       gradientUnits="userSpaceOnUse"
       gradientTransform="scale(1.0007737,0.99922693)"
       spreadMethod="pad"
       x1="30.014484"
       y1="25.00894"
       x2="30.014484"
       y2="30.023365" />
    <linearGradient
       inkscape:collect="always"
       xlink:href="#gradient7-3"
       id="linearGradient4074"
       gradientUnits="userSpaceOnUse"
       gradientTransform="scale(1.0007736,0.99922695)"
       spreadMethod="pad"
       x1="30.014503"
       y1="25.008944"
       x2="30.014503"
       y2="30.023371" />
    <linearGradient
       inkscape:collect="always"
       xlink:href="#gradient8-5"
       id="linearGradient4076"
       gradientUnits="userSpaceOnUse"
       gradientTransform="scale(1.0007737,0.99922692)"
       spreadMethod="pad"
       x1="30.014494"
       y1="25.008942"
       x2="30.014494"
       y2="30.023369" />
  </defs>
  <g
     inkscape:groupmode="layer"
     id="layer3"
     inkscape:label="bg"
     style="display:inline"
     transform="translate(0,16)" />
  <g
     inkscape:groupmode="layer"
     id="layer2"
     inkscape:label="old"
     style="display:none"
     transform="translate(0,16)">
    <g
       id="g4018"
       transform="matrix(2,0,0,2,-0.04277004,-16)">
      <g
         transform="translate(0.0427701,5.9604645e-8)"
         id="layer1-3"
         style="fill:none">
        <path
           id="path2855"
           transform="translate(0.5,0.5)"
           d="M 0,0 12.9572,0.01 12.9992,15 1e-8,15 0,1e-7 z"
           style="fill:url(#linearGradient4060);stroke:url(#linearGradient4062);stroke-width:1.00000012;stroke-linecap:round;stroke-linejoin:round"
           inkscape:connector-curvature="0" />
        <g
           id="g4198"
           transform="translate(3,3)"
           style="fill:none">
          <path
             id="path6035"
             transform="scale(1.01954,1)"
             d="m 0,0 1.12407,0 0,1 L 0,1 z"
             inkscape:connector-curvature="0"
             style="opacity:0.7;fill:#686868" />
          <path
             id="path6033"
             transform="matrix(1.01954,0,0,1,1.30215,0)"
             d="m 0,0 1.06061,0 0,1 L 0,1 z"
             inkscape:connector-curvature="0"
             style="opacity:0.7;fill:#686868" />
          <path
             id="path6031"
             transform="matrix(1.01954,0,0,1,2.5396,0)"
             d="m 0,0 0.933684,0 0,1 L 0,1 z"
             inkscape:connector-curvature="0"
             style="opacity:0.7;fill:#686868" />
          <path
             id="path6029"
             transform="matrix(1.01954,0,0,1,3.64764,0)"
             d="m 0,0 0.410114,0 0,1 L 0,1 z"
             inkscape:connector-curvature="0"
             style="opacity:0.7;fill:#686868" />
          <path
             id="path6027"
             transform="matrix(1.01954,0,0,1,4.22189,0)"
             d="m 0,0 0.917815,0 0,1 L 0,1 z"
             inkscape:connector-curvature="0"
             style="opacity:0.7;fill:#686868" />
          <path
             id="path6025"
             transform="matrix(1.01954,0,0,1,5.31375,0)"
             d="m 0,0 2.37746,0 0,1 L 0,1 z"
             inkscape:connector-curvature="0"
             style="opacity:0.7;fill:#686868" />
          <path
             id="path6017"
             transform="matrix(1.01954,0,0,1,0,6)"
             d="m 0,0 1.12407,0 0,1 L 0,1 z"
             inkscape:connector-curvature="0"
             style="opacity:0.7;fill:#686868" />
          <path
             id="path6015"
             transform="matrix(1.01954,0,0,1,1.30215,6)"
             d="m 0,0 1.06061,0 0,1 L 0,1 z"
             inkscape:connector-curvature="0"
             style="opacity:0.7;fill:#686868" />
          <path
             id="path6013"
             transform="matrix(1.01954,0,0,1,2.5396,6)"
             d="m 0,0 0.933683,0 0,1 L 0,1 z"
             inkscape:connector-curvature="0"
             style="opacity:0.7;fill:#686868" />
          <path
             id="path6011"
             transform="matrix(1.01954,0,0,1,3.64764,6)"
             d="m 0,0 0.410114,0 0,1 L 0,1 z"
             inkscape:connector-curvature="0"
             style="opacity:0.7;fill:#686868" />
          <path
             id="path6009"
             transform="matrix(1.01954,0,0,1,4.22188,6)"
             d="m 0,0 0.917814,0 0,1 L 0,1 z"
             inkscape:connector-curvature="0"
             style="opacity:0.7;fill:#686868" />
          <path
             id="path5999"
             transform="matrix(1.01954,0,0,1,0,2)"
             d="m 0,0 1.74283,0 0,1 L 0,1 z"
             inkscape:connector-curvature="0"
             style="opacity:0.7;fill:#686868" />
          <path
             id="path5997"
             transform="matrix(1.01954,0,0,1,1.93908,2)"
             d="m 0,0 0.838487,0 0,1 L 0,1 z"
             inkscape:connector-curvature="0"
             style="opacity:0.7;fill:#686868" />
          <path
             id="path5995"
             transform="matrix(1.01954,0,0,1,2.95613,2)"
             d="m 0,0 0.394245,0 0,1 L 0,1 z"
             inkscape:connector-curvature="0"
             style="opacity:0.7;fill:#686868" />
          <path
             id="path5993"
             transform="matrix(1.01954,0,0,1,3.52026,2)"
             d="m 0,0 0.759159,0 0,1 L 0,1 z"
             inkscape:connector-curvature="0"
             style="opacity:0.7;fill:#686868" />
          <path
             id="path5991"
             transform="matrix(1.01954,0,0,1,4.45643,2)"
             d="m 0,0 0.759159,0 0,1 L 0,1 z"
             inkscape:connector-curvature="0"
             style="opacity:0.7;fill:#686868" />
          <path
             id="path5989"
             transform="matrix(1.01954,0,0,1,5.39261,2)"
             d="m 0,0 1.21926,0 0,1 L 0,1 z"
             inkscape:connector-curvature="0"
             style="opacity:0.7;fill:#686868" />
          <path
             id="path5981"
             transform="matrix(1.01954,0,0,1,0,4)"
             d="m 0,0 1.99668,0 0,1 L 0,1 z"
             inkscape:connector-curvature="0"
             style="opacity:0.7;fill:#686868" />
          <path
             id="path5979"
             transform="matrix(1.01954,0,0,1,2.19529,4)"
             d="m 0,0 2.13947,0 0,1 L 0,1 z"
             inkscape:connector-curvature="0"
             style="opacity:0.7;fill:#686868" />
          <path
             id="path5977"
             transform="matrix(1.01954,0,0,1,4.53615,4)"
             d="m 0,0 0.854355,0 0,1 L 0,1 z"
             inkscape:connector-curvature="0"
             style="opacity:0.7;fill:#686868" />
          <path
             id="path5975"
             transform="matrix(1.01954,0,0,1,5.56679,4)"
             d="m 0,0 2.01255,0 0,1 L 0,1 z"
             inkscape:connector-curvature="0"
             style="opacity:0.7;fill:#686868" />
          <path
             id="path2916"
             transform="matrix(1.01954,0,0,1,0,8)"
             d="m 0,0 1.12407,0 0,1 L 0,1 z"
             inkscape:connector-curvature="0"
             style="opacity:0.7;fill:#686868" />
          <path
             id="path2918"
             transform="matrix(1.01954,0,0,1,1.30215,8)"
             d="m 0,0 1.06061,0 0,1 L 0,1 z"
             inkscape:connector-curvature="0"
             style="opacity:0.7;fill:#686868" />
          <path
             id="path2920"
             transform="matrix(1.01954,0,0,1,2.5396,8)"
             d="m 0,0 0.933683,0 0,1 L 0,1 z"
             inkscape:connector-curvature="0"
             style="opacity:0.7;fill:#686868" />
        </g>
        <path
           id="path2422"
           transform="translate(4.99643,5.67071)"
           d="m 8.25732,0.0337698 c -0.08415,-0.04997 -0.14927,-0.03696997 -0.19229,-0.0092 L 2.33547,3.70464 1.28095,4.38385 1.24848,4.39759 0,7.23529 3.09408,7.32929 3.11977,7.31195 4.18107,6.63633 9.9092,2.92453 C 10.0813,2.81332 9.80913,2.07626 9.29872,1.26826 8.91592,0.662266 8.50978,0.183633 8.25732,0.0337318 z"
           inkscape:connector-curvature="0"
           style="opacity:0.15;fill:#0c0c0c;fill-rule:evenodd" />
      </g>
      <g
         id="g8626"
         transform="translate(5.0002601,1.99974)"
         style="fill:none">
        <path
           id="path3041"
           transform="matrix(0.702577,0,0,0.704261,1.4709,0.216394)"
           d="m 0,10.2519 c 0.286542,-0.2077 1.14795,0.2564 1.96034,1.0619 0.81044,0.8036 1.2602,1.6413 1.05756,1.9306 -7.7e-4,0.0011 0.01977,0.0177 0.01898,0.0188 L 13.1753,3.08288 C 13.4327,2.82441 12.9622,1.93926 12.1241,1.10813 11.2859,0.277 10.3959,-0.186931 10.1385,0.0715409 z"
           style="fill:url(#linearGradient4064);stroke:#0c0c0c;stroke-width:0.60797864;stroke-linecap:butt;stroke-linejoin:round"
           inkscape:connector-curvature="0" />
        <path
           id="path3045"
           transform="matrix(0.702577,0,0,0.704261,1.4709,2.44622)"
           d="m 0,7.08568 c 0.286543,-0.20771 1.14795,0.25639 1.96034,1.06194 0.81044,0.80363 1.2602,1.64133 1.05756,1.93058 -7.7e-4,0.0011 0.01977,0.0177 0.01898,0.0188 L 10.0189,3.08615 10.0442,3.0608 C 10.0449,3.05972 10.0244,3.04308 10.0252,3.04198 10.2278,2.75273 9.77807,1.91503 8.96762,1.1114 8.15523,0.305847 7.29382,-0.158247 7.00728,0.0494597 L 6.98203,0.0748147 4e-7,7.08568 z"
           inkscape:connector-curvature="0"
           style="opacity:0.6;fill:#0c0c0c" />
        <path
           id="path3047"
           transform="matrix(0.702577,0,0,0.704261,6.48008,2.26929)"
           d="M 0,0.176239 C 0.286541,-0.031468 1.14795,0.432627 1.96034,1.23818 2.77078,2.04181 3.22054,2.87951 3.0179,3.16876 3.01712,3.16986 3.03767,3.18649 3.03688,3.18758 L 3.16313,3.0608 C 3.16392,3.05972 3.14338,3.04308 3.14415,3.04198 3.3468,2.75273 2.89704,1.91503 2.0866,1.1114 1.27421,0.305848 0.412799,-0.158247 0.126257,0.0494596 z"
           style="fill:url(#linearGradient4066)"
           inkscape:connector-curvature="0" />
        <path
           id="path3049"
           transform="matrix(0.702577,0,0,0.704261,6.39879,2.35112)"
           d="M 0,0.176239 C 0.286544,-0.0314677 1.14795,0.432627 1.96034,1.23818 2.77078,2.04181 3.22054,2.87951 3.0179,3.16876 3.01712,3.16986 3.03767,3.1865 3.03688,3.18758 L 3.16313,3.0608 C 3.16392,3.05972 3.14338,3.04308 3.14415,3.04198 3.3468,2.75273 2.89704,1.91503 2.0866,1.1114 1.27421,0.305848 0.4128,-0.158247 0.126257,0.0494597 z"
           style="fill:url(#linearGradient4068)"
           inkscape:connector-curvature="0" />
        <path
           id="path3051"
           transform="matrix(0.702577,0,0,0.704261,6.76258,1.98495)"
           d="M 0,0.176239 C 0.286543,-0.0314683 1.14795,0.432626 1.96034,1.23818 2.77078,2.04181 3.22054,2.87951 3.0179,3.16876 3.01712,3.16986 3.03767,3.18649 3.03688,3.18758 L 3.16313,3.0608 C 3.16393,3.05972 3.14338,3.04308 3.14415,3.04198 3.3468,2.75273 2.89704,1.91503 2.0866,1.1114 1.27421,0.305847 0.412801,-0.158247 0.126257,0.0494597 z"
           style="fill:url(#linearGradient4070)"
           inkscape:connector-curvature="0" />
        <path
           id="path3053"
           transform="matrix(0.702577,0,0,0.704261,6.68128,2.06678)"
           d="M 0,0.176239 C 0.286544,-0.0314685 1.14795,0.432626 1.96034,1.23818 2.77078,2.04181 3.22054,2.87951 3.0179,3.16876 3.01713,3.16986 3.03767,3.18649 3.03688,3.18758 L 3.16313,3.0608 C 3.16392,3.05972 3.14338,3.04308 3.14415,3.04198 3.3468,2.75273 2.89704,1.91503 2.0866,1.1114 1.27421,0.305848 0.412801,-0.158247 0.126257,0.0494597 z"
           style="fill:url(#linearGradient4072)"
           inkscape:connector-curvature="0" />
        <path
           id="path3055"
           transform="matrix(0.702577,0,0,0.704261,7.04643,1.69924)"
           d="M 0,0.176238 C 0.286541,-0.0314683 1.14795,0.432626 1.96034,1.23818 2.77078,2.04181 3.22054,2.87951 3.0179,3.16876 3.01713,3.16986 3.03767,3.18649 3.03688,3.18758 L 3.16313,3.0608 C 3.16392,3.05972 3.14338,3.04308 3.14415,3.04198 3.3468,2.75273 2.89704,1.91503 2.08659,1.1114 1.27421,0.305847 0.412799,-0.158247 0.126256,0.0494597 z"
           style="fill:url(#linearGradient4074)"
           inkscape:connector-curvature="0" />
        <path
           id="path3057"
           transform="matrix(0.702577,0,0,0.704261,6.96514,1.78107)"
           d="M 0,0.176238 C 0.286541,-0.0314687 1.14795,0.432626 1.96034,1.23818 2.77078,2.04181 3.22054,2.87951 3.0179,3.16876 3.01712,3.16986 3.03767,3.18649 3.03688,3.18758 L 3.16313,3.0608 C 3.16392,3.05972 3.14338,3.04308 3.14415,3.04198 3.3468,2.75273 2.89704,1.91503 2.0866,1.1114 1.27421,0.305848 0.412799,-0.158247 0.126257,0.0494599 z"
           style="fill:url(#linearGradient4076)"
           inkscape:connector-curvature="0" />
        <path
           id="path3059"
           transform="matrix(0.702577,0,0,0.704261,0.213987,7.40255)"
           stroke-miterlimit="4.00000000000"
           d="M 0,4.80486 4.77186,3.07937 4.81116,3.04011 C 5.01381,2.75087 4.55877,1.91283 3.74832,1.1092 2.93593,0.303642 2.07564,-0.158082 1.7891,0.0496248 z"
           inkscape:connector-curvature="0"
           style="fill:#dcdcdc;fill-rule:evenodd;stroke:#cccccc;stroke-width:0.60797864;stroke-linecap:butt;stroke-linejoin:miter;stroke-miterlimit:4" />
        <path
           id="path3061"
           transform="matrix(0.702577,0,0,0.704261,0.213576,9.8794)"
           stroke-miterlimit="4.00000000000"
           d="M 0.485212,0 0,1.28269 1.30137,0.809298 C 1.18769,0.676163 1.08209,0.541463 0.947014,0.407525 0.791507,0.253326 0.639934,0.126858 0.485212,0 z"
           inkscape:connector-curvature="0"
           style="fill:#0c0c0c;fill-rule:evenodd;stroke:#0c0c0c;stroke-width:0.60797864;stroke-linecap:butt;stroke-linejoin:miter;stroke-miterlimit:4" />
        <path
           id="path3043"
           transform="matrix(0.702577,0,0,0.704261,7.45448,0.214088)"
           d="m 0,1.70187 c 0.286542,-0.20771 1.14795,0.25639 1.96034,1.06194 0.81044,0.80363 1.2602,1.64133 1.05755,1.93058 -7.6e-4,0.0011 0.01977,0.01774 0.01899,0.01882 L 4.58881,3.15609 C 4.99729,2.74751 4.55953,2.06327 3.60744,1.1114 2.79505,0.305848 1.93364,-0.158247 1.6471,0.0494596 L 1.62185,0.0748155 3e-6,1.70187 z"
           inkscape:connector-curvature="0"
           style="opacity:0.8;fill:#c0c0c0;stroke:#cccccc;stroke-width:0.60797864;stroke-linecap:butt;stroke-linejoin:round" />
      </g>
    </g>
  </g>
  <g
     inkscape:groupmode="layer"
     id="layer1"
     inkscape:label="new"
     style="display:inline"
     transform="translate(0,16)">
    <path
       sodipodi:nodetypes="ccccccccccccccccccccccccccccccccccccccccccccccccccccccccccccc"
       inkscape:connector-curvature="0"
       id="path4016"
       d="m 5,-10.9375 0,2 5,0 0,-2 z m 6,0 0,2 4,0 0,-2 z m 5,0 0,2 4,0 1,-1 0,-1 z m -11,4 0,2 6,0 0,-2 z m 7,0 0,2 4,0 0,-2 z m 5,0 0,1 1,-1 z M 8.90625,-2.96875 5,-2.9375 l 0,2 3.90625,-0.03125 z M 10,-2.9375 l 0,2 2,0 1,-1 0,-1 z m -5,4 0,2 2,0 0,-2 z m 3,0 0,2 1.6875,0 c 0.421759,-1.095662 0.647687,-1.666494 0.78125,-2 z m -3,4.03125 0,1.96875 3.25,0 C 8.4476346,6.460285 8.6764952,5.805245 8.9375,5.09375 z m 7.1875,1.84375 c -0.09251,0.03423 -0.158903,0.05978 -0.25,0.09375 l 0.28125,0 0,-0.09375 c -0.0092,0.0034 -0.02205,-0.0034 -0.03125,0 z"
       style="fill:#000000;stroke:none" />
    <path
       sodipodi:nodetypes="cccccccccccccccc"
       inkscape:connector-curvature="0"
       id="path4014"
       d="m 0,13 c 0,1 1,2 2,2 l 21,0 c 1,0 2,-1 2,-2 l 0.0026,-11.0080247 -2.87169,3.0077392 0,7.0550465 -19.1543266,0 0,-25.106172 L 22,-13 l 0,2 3,-3 c 0,-0.93186 -1,-1.999948 -2,-2 l -21,0 c -1,0.04512 -2,1 -2,2 0,5.120066 0,19.3721916 0,27 z"
       style="font-size:medium;font-style:normal;font-variant:normal;font-weight:normal;font-stretch:normal;text-indent:0;text-align:start;text-decoration:none;line-height:normal;letter-spacing:normal;word-spacing:normal;text-transform:none;direction:ltr;block-progression:tb;writing-mode:lr-tb;text-anchor:start;baseline-shift:baseline;color:#000000;fill:#000000;fill-opacity:1;stroke:none;stroke-width:1.00000012;marker:none;visibility:visible;display:inline;overflow:visible;enable-background:accumulate;font-family:Sans;-inkscape-font-specification:Sans" />
    <path
       style="font-size:medium;font-style:normal;font-variant:normal;font-weight:normal;font-stretch:normal;text-indent:0;text-align:start;text-decoration:none;line-height:normal;letter-spacing:normal;word-spacing:normal;text-transform:none;direction:ltr;block-progression:tb;writing-mode:lr-tb;text-anchor:start;baseline-shift:baseline;color:#000000;fill:#ffffff;fill-opacity:1;stroke:none;stroke-width:1.00000012;marker:none;visibility:visible;display:inline;overflow:visible;enable-background:accumulate;font-family:Sans;-inkscape-font-specification:Sans"
       d="m 0,14 c 0,1 1,2 2,2 l 21,0 c 1,0 2,-1 2,-2 l 0.0026,-11.0080247 -2.87169,3.0077392 0,7.0550465 -19.1543266,0 0,-25.106172 L 22,-12 l 0,2 3,-3 c 0,-0.93186 -1,-1.999948 -2,-2 l -21,0 c -1,0.04512 -2,1 -2,2 0,5.120066 0,19.3721916 0,27 z"
       id="path2855-1"
       inkscape:connector-curvature="0"
       sodipodi:nodetypes="cccccccccccccccc" />
    <path
       style="fill:#ffffff;stroke:none"
       d="m 5,6 0,2 5,0 0,-2 z m 6,0 0,2 4,0 0,-2 z m 5,0 0,2 4,0 1,-1 0,-1 z m -11,4 0,2 6,0 0,-2 z m 7,0 0,2 4,0 0,-2 z m 5,0 0,1 1,-1 z M 8.90625,13.96875 5,14 5,16 8.90625,15.96875 z M 10,14 l 0,2 2,0 1,-1 0,-1 z m -5,4 0,2 2,0 0,-2 z m 3,0 0,2 1.6875,0 c 0.421759,-1.095662 0.647687,-1.666494 0.78125,-2 z M 5,22.03125 5,24 8.25,24 c 0.1976346,-0.602215 0.4264952,-1.257255 0.6875,-1.96875 z m 7.1875,1.84375 c -0.09251,0.03423 -0.158903,0.05978 -0.25,0.09375 l 0.28125,0 0,-0.09375 c -0.0092,0.0034 -0.02205,-0.0034 -0.03125,0 z"
       transform="translate(0,-16)"
       id="rect3757"
       inkscape:connector-curvature="0"
       sodipodi:nodetypes="ccccccccccccccccccccccccccccccccccccccccccccccccccccccccccccc" />
    <g
       id="g3927"
       transform="matrix(2.0077392,0,0,2.0077392,10.007796,-14.123874)"
       style="fill:#000000;stroke:#000000;display:inline">
      <path
         sodipodi:nodetypes="ccccccscc"
         inkscape:connector-curvature="0"
         id="path3929"
         d="M 7.8667856,0.69821656 1.3005652,7.2994171 c 0,0 -0.93454479,2.3181219 -1.30026719626,3.5034619 C -0.0542411,10.979645 0.21493537,10.999914 0.3686395,10.937063 1.4681142,10.487475 3.7184899,9.7190103 3.7184899,9.7190103 l 7.1562501,-7.1875 C 11.297795,2.1066079 10.698488,1.4577532 10.372907,1.075679 9.9657739,0.59790201 9.4398424,0.16927408 8.8296371,-0.00758584 8.4211389,0.01212096 8.0910511,0.48785332 7.8667856,0.69821656 z"
         style="font-size:medium;font-style:normal;font-variant:normal;font-weight:normal;font-stretch:normal;text-indent:0;text-align:start;text-decoration:none;line-height:normal;letter-spacing:normal;word-spacing:normal;text-transform:none;direction:ltr;block-progression:tb;writing-mode:lr-tb;text-anchor:start;baseline-shift:baseline;color:#000000;fill:#000000;fill-opacity:1;fill-rule:nonzero;stroke:none;stroke-width:0.42766342;marker:none;visibility:visible;display:inline;overflow:visible;enable-background:accumulate;font-family:Sans;-inkscape-font-specification:Sans" />
    </g>
    <path
       sodipodi:nodetypes="ccccccscc"
       inkscape:connector-curvature="0"
       id="path3041-7"
       d="M 25.80225,-10.644534 12.618992,2.6089548 c 0,0 -1.876322,4.6541843 -2.610598,7.0340378 -0.1095,0.3549001 0.430936,0.3955954 0.739534,0.2694065 C 12.955386,9.0097437 17.473554,7.466867 17.473554,7.466867 L 31.841438,-6.9637585 c 0.849384,-0.8530932 -0.353868,-2.1558243 -1.00755,-2.9229296 -0.817417,-0.9592519 -1.87335,-1.8198249 -3.098483,-2.1749129 -0.820158,0.03957 -1.482889,0.994712 -1.933155,1.417067 z"
       style="font-size:medium;font-style:normal;font-variant:normal;font-weight:normal;font-stretch:normal;text-indent:0;text-align:start;text-decoration:none;line-height:normal;letter-spacing:normal;word-spacing:normal;text-transform:none;direction:ltr;block-progression:tb;writing-mode:lr-tb;text-anchor:start;baseline-shift:baseline;color:#000000;fill:#ffffff;fill-opacity:1;fill-rule:nonzero;stroke:none;stroke-width:0.42766342;marker:none;visibility:visible;display:inline;overflow:visible;enable-background:accumulate;font-family:Sans;-inkscape-font-specification:Sans" />
  </g>
</svg>
